# xmcd
#
# Track frame offsets: 
#        150
#        17755
#        39380
#        59768
#        79666
#        103959
#        125387
#        138422
#        158977
#        180945
#        203449
#        218413
#        242429
#
# Disc length: 3537 seconds
#
# Revision: 0
# Processed by: cddbd v1.5.2PL0 Copyright (c) Steve Scherf et al.
# Submitted via: ExactAudioCopy v1.0b3
#
DISCID=a50dcf0d
DTITLE=侃侃 - 侃侃-忧郁的美CD2
DYEAR=2013
DGENRE=Acid
TTITLE0=滴答
TTITLE1=我想你
TTITLE2=把爱深藏
TTITLE3=爱情呀
TTITLE4=细说往事
TTITLE5=我最亲爱的
TTITLE6=相对
TTITLE7=一江水
TTITLE8=黄玫瑰
TTITLE9=山楂树之恋
TTITLE10=网络情缘
TTITLE11=隔世离空的红颜
TTITLE12=天亮了，我一个人上路
EXTD=
EXTT0=
EXTT1=
EXTT2=
EXTT3=
EXTT4=
EXTT5=
EXTT6=
EXTT7=
EXTT8=
EXTT9=
EXTT10=
EXTT11=
EXTT12=
PLAYORDER=
